HIERARCHY
ROOT Bip01
{
  OFFSET 15.7446 31.5610 57.6474
  CHANNELS 6 Xposition Yposition Zposition Zrotation Xrotation Yrotation
  JOINT Bip01_Footsteps
  {
    OFFSET 53.2821 -0.0001 8.1953
    CHANNELS 6 Xposition Yposition Zposition Zrotation Xrotation Yrotation
    End Site
    {
      OFFSET 0 0 0
    }
  }
  JOINT b_Hips
  {
    OFFSET 0.0000 0.0000 0.0000
    CHANNELS 6 Xposition Yposition Zposition Zrotation Xrotation Yrotation
    JOINT b_Spine
    {
      OFFSET 10.4409 -1.6220 0.0000
      CHANNELS 6 Xposition Yposition Zposition Zrotation Xrotation Yrotation
      JOINT b_Spine1
      {
        OFFSET 8.8514 -0.0090 0.0000
        CHANNELS 6 Xposition Yposition Zposition Zrotation Xrotation Yrotation
        JOINT b_Spine2
        {
          OFFSET 11.3035 -0.0088 -0.0000
          CHANNELS 6 Xposition Yposition Zposition Zrotation Xrotation Yrotation
          JOINT b_Spine3
          {
            OFFSET 11.0297 -0.0113 0.0000
            CHANNELS 6 Xposition Yposition Zposition Zrotation Xrotation Yrotation
            JOINT b__Neck
            {
              OFFSET 14.9480 -3.1935 0.0000
              CHANNELS 6 Xposition Yposition Zposition Zrotation Xrotation Yrotation
              JOINT b__Neck1
              {
                OFFSET 5.4958 -0.0043 0.0000
                CHANNELS 6 Xposition Yposition Zposition Zrotation Xrotation Yrotation
                JOINT b__Neck2
                {
                  OFFSET 5.5266 -0.0049 0.0000
                  CHANNELS 6 Xposition Yposition Zposition Zrotation Xrotation Yrotation
                  JOINT b_Head
                  {
                    OFFSET 6.1093 -0.0000 -0.0000
                    CHANNELS 6 Xposition Yposition Zposition Zrotation Xrotation Yrotation
                    JOINT Bip01_HeadNub
                    {
                      OFFSET 28.6688 0.0000 0.0000
                      CHANNELS 6 Xposition Yposition Zposition Zrotation Xrotation Yrotation
                      End Site
                      {
                        OFFSET 0 0 0
                      }
                    }
                    JOINT Dog_Jaw
                    {
                      OFFSET 0.6075 2.3575 -0.0000
                      CHANNELS 6 Xposition Yposition Zposition Zrotation Xrotation Yrotation
                      End Site
                      {
                        OFFSET 0 0 0
                      }
                    }
                  }
                }
              }
            }
            JOINT b_LeftClav
            {
              OFFSET 10.4683 2.1257 3.5190
              CHANNELS 6 Xposition Yposition Zposition Zrotation Xrotation Yrotation
              JOINT b_LeftArm
              {
                OFFSET 7.3453 0.0000 0.0000
                CHANNELS 6 Xposition Yposition Zposition Zrotation Xrotation Yrotation
                JOINT b_LeftForeArm
                {
                  OFFSET 23.3863 -0.0000 0.0000
                  CHANNELS 6 Xposition Yposition Zposition Zrotation Xrotation Yrotation
                  JOINT b_LeftHand
                  {
                    OFFSET 21.5040 -0.0000 0.0000
                    CHANNELS 6 Xposition Yposition Zposition Zrotation Xrotation Yrotation
                    JOINT b__LeftFinger
                    {
                      OFFSET 1.5926 6.2126 -0.0138
                      CHANNELS 6 Xposition Yposition Zposition Zrotation Xrotation Yrotation
                      JOINT Bip01_L_Finger0Nub
                      {
                        OFFSET 23.3657 0.0000 0.0000
                        CHANNELS 6 Xposition Yposition Zposition Zrotation Xrotation Yrotation
                        End Site
                        {
                          OFFSET 0 0 0
                        }
                      }
                    }
                  }
                }
                JOINT Dog_LeftArmor002
                {
                  OFFSET 4.2035 4.4457 12.7354
                  CHANNELS 6 Xposition Yposition Zposition Zrotation Xrotation Yrotation
                  End Site
                  {
                    OFFSET 0 0 0
                  }
                }
              }
            }
            JOINT b_RightClav
            {
              OFFSET 10.4683 2.1257 -3.5189
              CHANNELS 6 Xposition Yposition Zposition Zrotation Xrotation Yrotation
              JOINT b_RightArm
              {
                OFFSET 7.3453 -0.0000 -0.0000
                CHANNELS 6 Xposition Yposition Zposition Zrotation Xrotation Yrotation
                JOINT b_RightForeArm
                {
                  OFFSET 23.3863 0.0000 0.0000
                  CHANNELS 6 Xposition Yposition Zposition Zrotation Xrotation Yrotation
                  JOINT b_RightHand
                  {
                    OFFSET 21.5040 0.0000 0.0000
                    CHANNELS 6 Xposition Yposition Zposition Zrotation Xrotation Yrotation
                    JOINT b_RightFinger
                    {
                      OFFSET 1.5926 6.2126 0.0138
                      CHANNELS 6 Xposition Yposition Zposition Zrotation Xrotation Yrotation
                      JOINT Bip01_R_Finger0Nub
                      {
                        OFFSET 23.3657 -0.0000 0.0000
                        CHANNELS 6 Xposition Yposition Zposition Zrotation Xrotation Yrotation
                        End Site
                        {
                          OFFSET 0 0 0
                        }
                      }
                    }
                  }
                }
                JOINT Dog_RightArmor002
                {
                  OFFSET 4.2034 4.4457 -12.7351
                  CHANNELS 6 Xposition Yposition Zposition Zrotation Xrotation Yrotation
                  End Site
                  {
                    OFFSET 0 0 0
                  }
                }
              }
            }
          }
        }
      }
    }
    JOINT b_Tail001
    {
      OFFSET -2.2238 3.1695 2.4028
      CHANNELS 6 Xposition Yposition Zposition Zrotation Xrotation Yrotation
      JOINT b_Tail002
      {
        OFFSET 4.5589 0.0000 -0.0000
        CHANNELS 6 Xposition Yposition Zposition Zrotation Xrotation Yrotation
        JOINT b_Tail003
        {
          OFFSET 5.3731 0.0000 -0.0000
          CHANNELS 6 Xposition Yposition Zposition Zrotation Xrotation Yrotation
          JOINT b_Tail004
          {
            OFFSET 5.0945 -0.0000 0.0000
            CHANNELS 6 Xposition Yposition Zposition Zrotation Xrotation Yrotation
            JOINT b_Tail005
            {
              OFFSET 9.7173 -0.0000 -0.0001
              CHANNELS 6 Xposition Yposition Zposition Zrotation Xrotation Yrotation
              JOINT b_Tail006
              {
                OFFSET 8.2617 0.0001 0.0000
                CHANNELS 6 Xposition Yposition Zposition Zrotation Xrotation Yrotation
                JOINT b_Tail007
                {
                  OFFSET 9.7599 -0.0001 0.0000
                  CHANNELS 6 Xposition Yposition Zposition Zrotation Xrotation Yrotation
                  JOINT b_Tail008
                  {
                    OFFSET 11.1530 0.0000 -0.0000
                    CHANNELS 6 Xposition Yposition Zposition Zrotation Xrotation Yrotation
                    JOINT b_Tail009
                    {
                      OFFSET 10.3039 0.0000 0.0000
                      CHANNELS 6 Xposition Yposition Zposition Zrotation Xrotation Yrotation
                      End Site
                      {
                        OFFSET 0 0 0
                      }
                    }
                  }
                }
              }
            }
          }
        }
      }
    }
    JOINT Dog_LeftTail001
    {
      OFFSET -11.9878 -1.7857 10.1900
      CHANNELS 6 Xposition Yposition Zposition Zrotation Xrotation Yrotation
      JOINT Dog_LeftTail002
      {
        OFFSET 8.4424 0.0000 0.0000
        CHANNELS 6 Xposition Yposition Zposition Zrotation Xrotation Yrotation
        JOINT Dog_LeftTail003
        {
          OFFSET 9.9501 0.0000 -0.0000
          CHANNELS 6 Xposition Yposition Zposition Zrotation Xrotation Yrotation
          JOINT Dog_LeftTail004
          {
            OFFSET 9.4342 0.0000 -0.0000
            CHANNELS 6 Xposition Yposition Zposition Zrotation Xrotation Yrotation
            JOINT Dog_LeftTail005
            {
              OFFSET 9.7173 0.0001 0.0001
              CHANNELS 6 Xposition Yposition Zposition Zrotation Xrotation Yrotation
              JOINT Dog_LeftTail006
              {
                OFFSET 8.2618 -0.0000 -0.0000
                CHANNELS 6 Xposition Yposition Zposition Zrotation Xrotation Yrotation
                JOINT Dog_LeftTail007
                {
                  OFFSET 9.7599 0.0000 0.0000
                  CHANNELS 6 Xposition Yposition Zposition Zrotation Xrotation Yrotation
                  JOINT Dog_LeftTail008
                  {
                    OFFSET 11.1529 -0.0001 -0.0001
                    CHANNELS 6 Xposition Yposition Zposition Zrotation Xrotation Yrotation
                    JOINT Dog_LeftTail009
                    {
                      OFFSET 10.3039 -0.0000 0.0000
                      CHANNELS 6 Xposition Yposition Zposition Zrotation Xrotation Yrotation
                      End Site
                      {
                        OFFSET 0 0 0
                      }
                    }
                  }
                }
              }
            }
          }
        }
      }
    }
    JOINT b_LeftLegUpper
    {
      OFFSET -0.0000 0.0000 9.9422
      CHANNELS 6 Xposition Yposition Zposition Zrotation Xrotation Yrotation
      JOINT b_LeftLeg
      {
        OFFSET 25.9795 0.0000 0.0000
        CHANNELS 6 Xposition Yposition Zposition Zrotation Xrotation Yrotation
        JOINT b_LeftLeg1
        {
          OFFSET 21.2087 0.0000 -0.0000
          CHANNELS 6 Xposition Yposition Zposition Zrotation Xrotation Yrotation
          JOINT b_LeftAnkle
          {
            OFFSET 10.4341 -0.0000 0.0000
            CHANNELS 6 Xposition Yposition Zposition Zrotation Xrotation Yrotation
            JOINT b_LeftToe
            {
              OFFSET 5.6676 6.5983 -0.0000
              CHANNELS 6 Xposition Yposition Zposition Zrotation Xrotation Yrotation
              JOINT Bip01_L_Toe0Nub
              {
                OFFSET 8.6279 0.0000 0.0000
                CHANNELS 6 Xposition Yposition Zposition Zrotation Xrotation Yrotation
                End Site
                {
                  OFFSET 0 0 0
                }
              }
            }
            JOINT b_LeftToe002
            {
              OFFSET 5.6741 -2.3619 -0.5306
              CHANNELS 6 Xposition Yposition Zposition Zrotation Xrotation Yrotation
              End Site
              {
                OFFSET 0 0 0
              }
            }
          }
        }
      }
      JOINT Dog_LeftArmor001
      {
        OFFSET -2.6287 -3.4254 -3.1462
        CHANNELS 6 Xposition Yposition Zposition Zrotation Xrotation Yrotation
        End Site
        {
          OFFSET 0 0 0
        }
      }
    }
    JOINT b_RightLegUpper
    {
      OFFSET 0.0000 -0.0000 -9.9422
      CHANNELS 6 Xposition Yposition Zposition Zrotation Xrotation Yrotation
      JOINT b_RightLeg
      {
        OFFSET 25.9795 0.0000 0.0000
        CHANNELS 6 Xposition Yposition Zposition Zrotation Xrotation Yrotation
        JOINT b_RightLeg1
        {
          OFFSET 21.2087 0.0000 0.0000
          CHANNELS 6 Xposition Yposition Zposition Zrotation Xrotation Yrotation
          JOINT b_RightAnkle
          {
            OFFSET 10.4341 -0.0000 -0.0000
            CHANNELS 6 Xposition Yposition Zposition Zrotation Xrotation Yrotation
            JOINT b_RightToe
            {
              OFFSET 5.6676 6.5983 0.0000
              CHANNELS 6 Xposition Yposition Zposition Zrotation Xrotation Yrotation
              JOINT Bip01_R_Toe0Nub
              {
                OFFSET 8.6279 -0.0000 -0.0000
                CHANNELS 6 Xposition Yposition Zposition Zrotation Xrotation Yrotation
                End Site
                {
                  OFFSET 0 0 0
                }
              }
            }
            JOINT b_RightToe002
            {
              OFFSET 5.6741 -2.3620 0.5304
              CHANNELS 6 Xposition Yposition Zposition Zrotation Xrotation Yrotation
              End Site
              {
                OFFSET 0 0 0
              }
            }
          }
        }
      }
      JOINT Dog_RightArmor001
      {
        OFFSET -2.6288 -3.4254 3.1460
        CHANNELS 6 Xposition Yposition Zposition Zrotation Xrotation Yrotation
        End Site
        {
          OFFSET 0 0 0
        }
      }
    }
  }
}
MOTION
Frames: 4
Frame Time: 0.00833333
-47.2284 57.9545 109.951 89.5668 -13.8611 -159.918 53.2821 -6.35e-05 8.19533 -90 -81.2558 -180 0 0 0 -89.9999 -4.1675e-14 -90 10.4409 -1.622 1.78e-05 -11.8351 -1.79168 -6.9654 8.8514 -0.0089989 -7.10543e-15 -1.01824 -1.95101 -3.12478 11.3035 -0.0087814 -7.10543e-15 -0.981663 0.656103 -2.35875 11.0297 -0.0113029 0 -1.63223 0.986515 -0.570888 14.948 -3.19349 8.6e-06 -29.7729 -3.78413 -0.156624 5.49578 -0.0042877 3.55271e-14 6.14816 -5.11971 1.16671 5.52657 -0.0048637 1.06581e-14 5.41151 -6.02574 6.90563 6.10934 -1.42109e-14 -7.10543e-15 55.52 13.5607 1.43398 28.6688 -5.32907e-15 -7.10543e-15 3.18055e-15 -1.59028e-15 3.18055e-15 0.607494 2.35752 -7.6e-06 -156.427 -0.000147608 180 10.4683 2.1257 3.51896 176.773 2.73025 -99.5554 7.34534 0 1.9e-06 103.343 -77.6322 -161.081 23.3863 -1.9e-06 1e-06 -44.2966 0.427734 -1.31762 21.504 -7.10543e-15 -7.10543e-15 -105.039 -5.82759 -0.988096 1.59262 6.21256 -0.0138378 147.714 -13.3649 13.3561 23.3657 3.55271e-15 1e-06 1.59028e-15 0 1.19271e-15 4.20345 4.44573 12.7354 172.377 0.21838 -87.1877 10.4683 2.12572 -3.51895 -175.838 3.07335 96.1937 7.34534 -7.10543e-15 -1.9e-06 -11.9079 73.9402 -79.9435 23.3863 1.9e-06 0 -6.93797 0 1.63003e-14 21.504 3.8e-06 1e-06 -128.071 -4.82455 -26.526 1.59262 6.21257 0.0138388 -52.4071 -22.9955 1.83482 23.3657 0 1e-06 180 9.54166e-15 1.55052e-14 4.20337 4.4457 -12.7351 172.377 -0.218352 87.1876 -2.22376 3.16947 2.40276 175.722 12.9876 16.9183 4.55886 4.1202e-05 -6.156e-06 -5.19508 -27.6164 -26.9305 5.37305 4.104e-06 -7.236e-06 1.00351 4.38751 0.372095 5.09447 -1.2366e-05 3.0888e-05 6.36111e-15 3.18055e-15 -0 9.71734 -4.2e-05 -5.72e-05 3.18055e-15 2.38542e-15 -0 8.26175 8.01e-05 5.7e-06 -1.76556e-31 -3.18055e-15 -3.18055e-15 9.75986 -6.48e-05 2.86e-05 3.18055e-15 -7.95139e-16 3.18055e-15 11.153 2.67e-05 -2.1e-05 -3.18055e-15 7.95139e-16 -3.18055e-15 10.3039 1.14e-05 4.2e-05 3.18055e-15 7.95139e-16 -6.36111e-15 -11.9878 -1.78568 10.19 170.606 3.62573 1.11034 8.44238 1.53e-05 4.2e-05 -1.59028e-15 -3.97569e-16 -0 9.95005 7.6e-06 -2.86e-05 -0 0 -0 9.43418 1.42109e-14 -4.58e-05 -0 -3.97569e-16 -0 9.71733 6.87e-05 0.0001106 -1.59028e-15 -3.97569e-16 -1.59028e-15 8.26175 -2.29e-05 -4.77e-05 -1.59028e-15 -7.95139e-16 -1.59028e-15 9.75994 2.86e-05 3.05e-05 -3.18055e-15 0 -1.59028e-15 11.1529 -7.25e-05 -5.91e-05 -0 0 -0 10.3039 -7.6e-06 -7.10543e-15 -1.59028e-15 0 -1.59028e-15 -1.14e-05 1.53e-05 9.94222 -123.7 8.13301 179.046 25.9795 1e-06 0 -38.3351 -0.28236 -1.17734 21.2087 1.9e-06 -1e-06 58.2248 8.28783 -16.9241 10.4341 -1.9e-06 1e-06 -5.69678 -2.10732 4.74086 5.66763 6.59832 7.10543e-15 91.9801 21.1326 -11.4978 8.62785 0 3.55271e-15 -180 -3.18055e-14 -7.95139e-15 5.67414 -2.36194 -0.530567 -75.8081 4.38708 5.33411 -2.62874 -3.42539 -3.14618 29.7499 1.82752 90.2264 1.53e-05 -1.53e-05 -9.94222 -112.836 -19.8906 170.348 25.9795 0 1e-06 -53.3366 -0.88116 2.44343 21.2087 0 1.9e-06 54.4791 -17.5283 8.32613 10.4341 -1.9e-06 -1e-06 -18.6803 11.2712 -2.18828 5.66763 6.59831 1.42109e-14 86.3495 -3.32707 0.859251 8.62785 -7.10543e-15 0 8.82781e-32 1.59028e-15 -3.18055e-15 5.67412 -2.36198 0.530356 -75.808 -4.38692 -5.33418 -2.62878 -3.42545 3.14601 29.7498 -1.82753 -90.2266
-46.9934 57.6203 108.601 89.5849 -13.2041 -160.19 53.2821 -6.35e-05 8.19533 -90 -81.2558 -180 0 0 0 -89.9999 -5.43972e-14 -90 10.4409 -1.622 1.78e-05 -11.726 -1.29377 -7.10982 8.8514 -0.0089989 0 -0.944213 -2.21664 -2.66625 11.3035 -0.0087814 -7.10543e-15 -0.949537 0.280055 -1.94221 11.0297 -0.0113029 -7.10543e-15 -1.85374 0.754071 -0.43083 14.948 -3.19349 8.6e-06 -30.3951 -3.23542 -0.159793 5.49578 -0.0042877 3.55271e-14 6.67346 -4.78567 0.78681 5.52657 -0.0048637 -3.55271e-15 5.47124 -6.07007 6.80783 6.10934 -1.42109e-14 -3.55271e-15 55.9475 13.3673 1.1325 28.6688 5.32907e-15 3.55271e-15 -8.82781e-32 -1.59028e-15 -3.18055e-15 0.607494 2.35752 -7.6e-06 -156.427 -0.000147608 180 10.4683 2.1257 3.51896 175.248 3.4326 -98.9937 7.34534 7.10543e-15 1.9e-06 109.546 -76.271 -155.811 23.3863 -1.9e-06 1e-06 -40.3083 0.335038 -1.34418 21.504 -8.88178e-15 7.10543e-15 -107.258 -5.78518 -1.21262 1.59262 6.21256 -0.0138378 143.925 -10.3844 11.3933 23.3657 -3.55271e-15 1e-06 3.18055e-15 1.59028e-15 -1.19271e-15 4.20345 4.44573 12.7354 172.377 0.21838 -87.1877 10.4683 2.12572 -3.51895 -175.706 1.9719 95.8913 7.34534 -7.10543e-15 -1.9e-06 -7.3968 73.8622 -83.7766 23.3863 1.9e-06 0 -4.23525 -7.95139e-16 1.39149e-14 21.504 3.8e-06 1e-06 -127.774 -3.17408 -29.3954 1.59262 6.21257 0.0138388 -52.4597 -21.8849 2.25521 23.3657 0 1e-06 180 -3.18055e-15 7.15625e-15 4.20337 4.4457 -12.7351 172.377 -0.218352 87.1876 -2.22376 3.16947 2.40276 176.44 12.4948 17.4365 4.55886 4.1202e-05 -6.156e-06 -4.59803 -25.695 -26.8787 5.37305 4.104e-06 -7.236e-06 1.00557 4.43532 0.422072 5.09447 -1.2366e-05 3.0888e-05 3.18055e-15 -4.77083e-15 -6.36111e-15 9.71734 -4.2e-05 -5.72e-05 8.82781e-32 1.59028e-15 -3.18055e-15 8.26175 8.01e-05 5.7e-06 -3.18055e-15 1.59028e-15 6.36111e-15 9.75986 -6.48e-05 2.86e-05 6.36111e-15 1.59028e-15 -3.18055e-15 11.153 2.67e-05 -2.1e-05 3.18055e-15 3.18055e-15 3.18055e-15 10.3039 1.14e-05 4.2e-05 -0 3.18055e-15 -0 -11.9878 -1.78568 10.19 170.606 3.62573 1.11034 8.44238 1.53e-05 4.2e-05 -4.77083e-15 0 1.59028e-15 9.95005 7.6e-06 -2.86e-05 -1.59028e-15 3.97569e-16 -0 9.43418 -1.42109e-14 -4.58e-05 1.59028e-15 3.97569e-16 -0 9.71733 6.87e-05 0.0001106 -3.18055e-15 0 -1.59028e-15 8.26175 -2.29e-05 -4.77e-05 1.59028e-15 0 -1.59028e-15 9.75994 2.86e-05 3.05e-05 1.59028e-15 0 -1.59028e-15 11.1529 -7.25e-05 -5.91e-05 1.59028e-15 0 -1.59028e-15 10.3039 -7.6e-06 -7.10543e-15 1.59028e-15 -3.97569e-16 -1.59028e-15 -1.14e-05 1.53e-05 9.94222 -122.012 8.42175 179.093 25.9795 1e-06 0 -40.1062 -0.245833 -1.18551 21.2087 1.9e-06 -1e-06 58.984 7.54914 -17.313 10.4341 -1.9e-06 1e-06 -4.30324 -1.99121 4.79069 5.66763 6.59832 -3.55271e-15 92.1111 21.634 -12.1828 8.62785 0 7.10543e-15 -180 6.36111e-14 -6.36111e-15 5.67414 -2.36194 -0.530567 -75.8081 4.38708 5.33411 -2.62874 -3.42539 -3.14618 29.7499 1.82752 90.2264 1.53e-05 -1.53e-05 -9.94222 -115.505 -19.4644 169.744 25.9795 -1.42109e-14 1e-06 -59.602 -1.14267 2.33267 21.2087 1.42109e-14 1.9e-06 65.4621 -16.8081 9.24212 10.4341 -1.9e-06 -1e-06 -20.4845 7.91574 -2.28667 5.66763 6.59831 -7.10543e-15 85.8062 -2.67221 0.209887 8.62785 -7.10543e-15 -7.10543e-15 -3.18055e-15 0 -3.18055e-15 5.67412 -2.36198 0.530355 -75.808 -4.38692 -5.33418 -2.62878 -3.42545 3.14601 29.7498 -1.82753 -90.2266
-46.7612 57.2403 107.241 89.6116 -12.4717 -160.5 53.2821 -6.35e-05 8.19533 -90 -81.2558 -180 0 0 0 -89.9999 -5.43972e-14 -90 10.4409 -1.622 1.78e-05 -11.5483 -0.85091 -7.1863 8.8514 -0.0089989 7.10543e-15 -0.981827 -2.38726 -2.1698 11.3035 -0.0087814 -7.10543e-15 -0.968999 0.00275482 -1.51984 11.0297 -0.0113029 7.10543e-15 -2.04457 0.561845 -0.322176 14.948 -3.19349 8.6e-06 -30.8063 -2.74344 -0.233697 5.49578 -0.0042877 3.55271e-14 7.16227 -4.41839 0.319614 5.52657 -0.0048637 1.06581e-14 5.51692 -6.0658 6.69505 6.10934 0 0 56.3905 13.1371 0.758198 28.6688 3.55271e-15 -3.55271e-15 -8.82781e-32 -1.59028e-15 -3.18055e-15 0.607494 2.35752 -7.6e-06 -156.427 -0.000147608 180 10.4683 2.1257 3.51896 174.034 4.39798 -98.5334 7.34534 -7.10543e-15 1.9e-06 115.355 -74.5418 -151.06 23.3863 -1.9e-06 1e-06 -36.0882 0.235197 -1.36519 21.504 -7.10543e-15 7.10543e-15 -108.478 -5.75819 -1.33531 1.59262 6.21256 -0.0138378 140.909 -8.83842 10.3059 23.3657 0 1e-06 1.59028e-15 0 -2.5842e-15 4.20345 4.44573 12.7354 172.377 0.21838 -87.1877 10.4683 2.12572 -3.51895 -175.559 1.00109 95.4059 7.34534 -1.42109e-14 -1.9e-06 -4.746 73.5651 -85.75 23.3863 1.9e-06 0 -1.63452 0 1.43125e-14 21.504 3.8e-06 1e-06 -125.993 -1.97686 -29.9968 1.59262 6.21257 0.0138388 -52.4454 -21.0786 2.49015 23.3657 0 1e-06 180 -4.29375e-14 -4.77083e-15 4.20337 4.4457 -12.7351 172.377 -0.218352 87.1876 -2.22376 3.16947 2.40276 176.928 12.1144 17.9407 4.55886 4.1202e-05 -6.156e-06 -4.16223 -23.873 -26.9471 5.37305 4.104e-06 -7.236e-06 0.843996 4.53222 0.46662 5.09447 -1.2366e-05 3.0888e-05 3.18055e-15 0 3.18055e-15 9.71734 -4.2e-05 -5.72e-05 -2.20695e-31 3.97569e-15 3.18055e-15 8.26175 8.01e-05 5.7e-06 -0 7.95139e-16 -0 9.75986 -6.48e-05 2.86e-05 -3.18055e-15 -7.95139e-16 -6.36111e-15 11.153 2.67e-05 -2.1e-05 -0 -7.95139e-16 -0 10.3039 1.14e-05 4.2e-05 -0 -7.95139e-16 -0 -11.9878 -1.78568 10.19 170.606 3.62573 1.11034 8.44238 1.53e-05 4.2e-05 -6.62086e-32 -1.19271e-15 -3.18055e-15 9.95005 7.6e-06 -2.86e-05 -1.10348e-32 -3.97569e-16 -1.59028e-15 9.43418 1.42109e-14 -4.58e-05 -1.59028e-15 3.97569e-16 -0 9.71733 6.87e-05 0.0001106 -3.18055e-15 -3.97569e-16 -0 8.26175 -2.29e-05 -4.77e-05 -1.59028e-15 7.95139e-16 -1.59028e-15 9.75994 2.86e-05 3.05e-05 -1.59028e-15 3.97569e-16 -0 11.1529 -7.25e-05 -5.91e-05 -0 0 -1.59028e-15 10.3039 -7.6e-06 -7.10543e-15 -0 0 -1.59028e-15 -1.14e-05 1.53e-05 9.94222 -120.209 8.68983 179.175 25.9795 1e-06 -7.10543e-15 -41.4314 -0.218347 -1.19087 21.2087 1.9e-06 -1e-06 60.314 7.67988 -17.6919 10.4341 -1.9e-06 1e-06 -3.84878 -1.95308 4.80633 5.66763 6.59832 -7.10543e-15 91.9226 21.6947 -12.3933 8.62785 0 0 -180 -1.43125e-14 1.59028e-15 5.67414 -2.36194 -0.530567 -75.8081 4.38708 5.33411 -2.62874 -3.42539 -3.14618 29.7499 1.82752 90.2264 1.53e-05 -1.53e-05 -9.94222 -118.161 -19.2959 169.15 25.9795 0 1e-06 -64.6436 -1.3433 2.22324 21.2087 0 1.9e-06 77.5973 -16.2488 11.2291 10.4341 -1.9e-06 -1e-06 -22.3861 5.91334 -1.92299 5.66763 6.59831 0 86.0459 -2.5767 0.152692 8.62785 0 -7.10543e-15 1.59028e-15 0 -0 5.67412 -2.36198 0.530356 -75.808 -4.38692 -5.33418 -2.62878 -3.42545 3.14601 29.7498 -1.82753 -90.2266
-46.5407 56.8205 105.871 89.8072 -11.6742 -160.736 53.2821 -6.35e-05 8.19533 -90 -81.2558 -180 0 0 0 -89.9999 -5.43972e-14 -90 10.4409 -1.622 1.78e-05 -11.4386 -0.438747 -7.21243 8.8514 -0.0089989 7.10543e-15 -1.10672 -2.41781 -1.64785 11.3035 -0.0087814 -7.10543e-15 -1.04781 -0.0887217 -1.09745 11.0297 -0.0113029 -7.10543e-15 -2.24348 0.414994 -0.205982 14.948 -3.19349 8.6e-06 -30.7245 -2.28028 -0.613001 5.49578 -0.0042877 2.84217e-14 7.33366 -3.82288 -0.0209681 5.52657 -0.0048637 -7.10543e-15 5.53729 -6.00601 6.57448 6.10934 -2.84217e-14 3.55271e-15 56.7967 12.9041 0.354272 28.6688 7.10543e-15 0 6.36111e-15 0 1.59028e-15 0.607494 2.35752 -7.6e-06 -156.427 -0.000147608 180 10.4683 2.1257 3.51896 173.188 5.75038 -98.3029 7.34534 -7.10543e-15 1.9e-06 120.038 -72.5182 -147.72 23.3863 -1.9e-06 1e-06 -31.9578 0.136237 -1.37859 21.504 -1.06581e-14 7.10543e-15 -108.169 -5.76527 -1.30431 1.59262 6.21256 -0.0138378 138.731 -8.7623 10.7569 23.3657 0 1e-06 -3.18055e-15 0 9.93923e-16 4.20345 4.44573 12.7354 172.377 0.21838 -87.1877 10.4683 2.12572 -3.51895 -175.48 0.250104 94.6158 7.34534 0 -1.9e-06 -3.90894 73.0094 -85.941 23.3863 1.9e-06 0 0.819178 0 1.43125e-14 21.504 3.8e-06 1e-06 -123.212 -1.13722 -29.0703 1.59262 6.21257 0.0138388 -52.1198 -19.8977 2.73687 23.3657 0 1e-06 180 1.59028e-15 5.56597e-15 4.20337 4.4457 -12.7351 172.377 -0.218352 87.1876 -2.22376 3.16947 2.40276 177.145 11.6556 18.4269 4.55886 4.1202e-05 -6.156e-06 -3.86805 -22.2145 -27.0152 5.37305 4.104e-06 -7.236e-06 0.597274 4.6574 0.517817 5.09447 -1.2366e-05 3.0888e-05 -0 7.95139e-16 -0 9.71734 -4.2e-05 -5.72e-05 -4.41391e-32 -7.95139e-16 -3.18055e-15 8.26175 8.01e-05 5.7e-06 6.36111e-15 -7.95139e-16 -6.36111e-15 9.75986 -6.48e-05 2.86e-05 -3.18055e-15 -7.95139e-16 -3.18055e-15 11.153 2.67e-05 -2.1e-05 -0 0 3.18055e-15 10.3039 1.14e-05 4.2e-05 -0 7.95139e-16 -0 -11.9878 -1.78568 10.19 170.606 3.62573 1.11034 8.44238 1.53e-05 4.2e-05 -1.59028e-15 1.98785e-16 -0 9.95005 7.6e-06 -2.86e-05 -3.18055e-15 -1.98785e-16 -1.59028e-15 9.43418 0 -4.58e-05 -1.59028e-15 -1.98785e-16 1.59028e-15 9.71733 6.87e-05 0.0001106 -0 -9.93923e-16 -0 8.26175 -2.29e-05 -4.77e-05 -1.59028e-15 1.98785e-16 3.18055e-15 9.75994 2.86e-05 3.05e-05 -5.51738e-33 1.98785e-16 1.59028e-15 11.1529 -7.25e-05 -5.91e-05 -1.59028e-15 -3.97569e-16 1.59028e-15 10.3039 -7.6e-06 0 -1.59028e-15 -1.19271e-15 -0 -1.14e-05 1.53e-05 9.94222 -118.511 8.99542 179.456 25.9795 1e-06 7.10543e-15 -42.4858 -0.196392 -1.19469 21.2087 1.9e-06 -1e-06 62.148 7.75416 -17.8992 10.4341 -1.9e-06 1e-06 -4.41317 -2.00041 4.78686 5.66763 6.59832 3.55271e-15 91.2404 21.7162 -12.1227 8.62785 0 3.55271e-15 -180 3.18055e-14 4.77083e-15 5.67414 -2.36194 -0.530567 -75.8081 4.38708 5.33411 -2.62874 -3.42539 -3.14618 29.7499 1.82752 90.2264 1.53e-05 -1.53e-05 -9.94222 -121.139 -19.5902 168.761 25.9795 0 1e-06 -67.9841 -1.47059 2.14119 21.2087 -1.42109e-14 1.9e-06 88.5666 -15.8138 13.3284 10.4341 -1.9e-06 -1e-06 -23.8801 5.13995 -1.02752 5.66763 6.59831 7.10543e-15 86.8045 -2.7046 0.509125 8.62785 0 -7.10543e-15 6.4605e-16 -1.2424e-16 -3.18055e-15 5.67412 -2.36198 0.530356 -75.808 -4.38692 -5.33418 -2.62878 -3.42545 3.14601 29.7498 -1.82753 -90.2266
